<?xml version="1.0" encoding="utf-8"?>
<!-- Generator: Adobe Illustrator 23.0.1, SVG Export Plug-In . SVG Version: 6.00 Build 0)  -->
<svg version="1.1" id="Layer_1" xmlns="http://www.w3.org/2000/svg" xmlns:xlink="http://www.w3.org/1999/xlink" x="0px" y="0px"
	 viewBox="0 0 40 40" style="enable-background:new 0 0 40 40;" xml:space="preserve">
<g>
	<path d="M37.6,38.6h-6.2c-0.7,0-1.2-0.1-1.6-0.2c-0.4-0.2-0.8-0.5-1.3-1l-2.6-2.6c-1.6,1.3-3.5,2.4-5.5,3.1S16.3,39,13.9,39
		c-1.4,0-2.8-0.2-4.2-0.7c-1.4-0.5-2.6-1.2-3.7-2.1c-1.1-0.9-2-2-2.6-3.4c-0.7-1.3-1-2.8-1-4.4c0-1.2,0.2-2.3,0.6-3.3
		c0.4-1,0.9-2,1.6-2.9c0.7-0.9,1.5-1.7,2.4-2.4c0.9-0.7,1.9-1.3,3-1.8c-0.9-1.3-1.6-2.5-2-3.8c-0.4-1.2-0.6-2.4-0.6-3.7
		c0-1.3,0.2-2.5,0.7-3.7s1.2-2.2,2-3c0.9-0.9,2-1.5,3.3-2C14.7,1.3,16.2,1,17.8,1c1.5,0,2.9,0.2,4,0.7c1.2,0.5,2.2,1.1,3.1,1.8
		c0.8,0.8,1.5,1.7,2,2.6c0.5,1,0.8,2,0.9,3.1l-4,0.8c-0.8,0.2-1.3-0.2-1.6-1c-0.2-0.4-0.4-0.9-0.6-1.3c-0.2-0.4-0.5-0.8-0.9-1.1
		c-0.3-0.3-0.7-0.5-1.2-0.7c-0.5-0.2-1-0.3-1.6-0.3c-0.7,0-1.4,0.1-1.9,0.4c-0.6,0.2-1,0.6-1.4,1c-0.4,0.4-0.7,0.9-0.9,1.5
		c-0.2,0.6-0.3,1.1-0.3,1.8c0,0.5,0.1,1,0.2,1.5c0.1,0.5,0.3,1,0.5,1.4c0.2,0.5,0.6,1,0.9,1.5c0.4,0.5,0.9,1.1,1.4,1.6l9.9,10.3
		c0.6-1.1,1-2.2,1.4-3.4s0.6-2.4,0.7-3.7c0.1-0.4,0.2-0.7,0.4-1c0.2-0.2,0.5-0.4,0.9-0.4h4c0,2.3-0.3,4.4-1,6.5s-1.5,4-2.7,5.7
		L37.6,38.6z M12.8,21.2c-1.4,0.9-2.4,1.9-3,3c-0.6,1.1-0.9,2.3-0.9,3.6c0,0.9,0.2,1.8,0.5,2.5c0.3,0.8,0.8,1.4,1.3,1.9
		c0.6,0.5,1.2,0.9,2,1.2c0.7,0.3,1.5,0.4,2.4,0.4c1.5,0,2.9-0.2,4.1-0.7c1.3-0.5,2.4-1.1,3.4-2L12.8,21.2z"/>
</g>
</svg>
