<?xml version="1.0" encoding="utf-8"?>
<!-- Generator: Adobe Illustrator 23.0.1, SVG Export Plug-In . SVG Version: 6.00 Build 0)  -->
<svg version="1.1" id="Layer_1" xmlns="http://www.w3.org/2000/svg" xmlns:xlink="http://www.w3.org/1999/xlink" x="0px" y="0px"
	 viewBox="0 0 40 40" style="enable-background:new 0 0 40 40;" xml:space="preserve">
<style type="text/css">
	.st0{fill:#FFFFFF;}
</style>
<g>
	<path class="st0" d="M30.6,8.9c0-2.8-2.3-5-5.2-5.1c0,0,0,0,0,0c0,0-0.1,0-0.1,0c0,0-0.1,0-0.1,0c-0.5,0-0.9,0.1-1.4,0.2
		c-0.1,0-0.3,0-0.4-0.1C22.2,2.1,20.1,1,17.8,1c-2.9,0-5.5,1.8-6.5,4.4c-0.1,0.2-0.2,0.3-0.4,0.2c-0.2,0-0.4,0-0.6,0
		c-2.4,0-4.4,1.9-4.4,4.2c0,1.5,0.8,2.8,2.1,3.6c0,0,0,0,0,0s0.5,0.4,1.4,0.5l0,0c0,0,0,0,0,0c0,0,0,0,0.1,0c0,0,0,0,0,0
		C9.7,14,10,14,10.3,14c0,0,0.1,0,0.1,0l0,0l5.1,0c0.2,0,0.3,0.1,0.3,0.3v1.5c0,1.1,0.9,1.9,1.9,1.9c1.1,0,1.9-0.9,1.9-1.9v-0.6V14
		c0-0.5,0.4-0.9,0.9-0.9c0.5,0,0.9,0.4,0.9,0.9v0.8v0.4v4.2c0,1.1,0.9,1.9,1.9,1.9c1.1,0,1.9-0.9,1.9-1.9V16v-0.6v-0.6
		c0-0.4,0.3-0.7,0.6-0.9l0.1,0c0.1,0,0.3,0,0.4-0.1l0.1,0c0,0,0,0,0,0l0,0c0.1,0,0.1,0,0.2,0c0,0,0.1,0,0.1,0c0.1,0,0.2-0.1,0.2-0.1
		c0,0,0,0,0,0c0.4-0.1,0.9-0.4,1-0.5l0,0h0c0,0,0.1,0,0.1,0l0,0C29.7,12.2,30.6,10.7,30.6,8.9z"/>
	<path class="st0" d="M30.6,14.5h-3.1v-0.5c-0.1,0-0.2,0.1-0.3,0.1c0,0,0,0,0,0c-0.1,0-0.2,0.1-0.2,0.1l0,0c0,0-0.1,0-0.1,0
		c-0.1,0-0.1,0-0.2,0l0,0l0,0l-0.1,0c-0.2,0-0.3,0.1-0.5,0.1l0,0c-0.2,0.1-0.3,0.2-0.3,0.4v0.6V16v3.4c0,1.3-1.1,2.4-2.4,2.4
		c-1.3,0-2.4-1.1-2.4-2.4v-4.2v-0.4V14c0-0.2-0.2-0.4-0.4-0.4c-0.2,0-0.4,0.2-0.4,0.4v1.2v0.6c0,1.3-1.1,2.4-2.4,2.4
		c-1.3,0-2.4-1.1-2.4-2.4v-1.3l-5,0l0,0l0,0c0,0-0.1,0-0.1,0c-0.3,0-0.6,0-0.9-0.1l0,0l0,0c0,0,0,0-0.1,0l0,0l0,0l0,0
		c-0.8-0.2-1.4-0.5-1.5-0.6V14v0.2v20.3l-1.4,1.7c-0.4,0.5-0.5,1.3-0.2,1.9C6.3,38.7,6.8,39,7.3,39h20.5c0.6,0,1.1-0.3,1.3-0.9
		c0.3-0.6,0.2-1.4-0.2-1.9l-1.4-1.7v-5.7h3.1c2,0,3.6-1.6,3.6-3.6v-7.1C34.2,16.1,32.6,14.5,30.6,14.5z M12,16.7
		c0-0.3,0.2-0.5,0.5-0.5c0.3,0,0.5,0.2,0.5,0.5v10.9c0,0.3-0.2,0.5-0.5,0.5c-0.3,0-0.5-0.2-0.5-0.5V16.7z M12,29.4
		c0-0.3,0.2-0.5,0.5-0.5c0.3,0,0.5,0.2,0.5,0.5v0.9c0,0.3-0.2,0.5-0.5,0.5c-0.3,0-0.5-0.2-0.5-0.5V29.4z M30.7,24.8
		c0,0.2-0.2,0.4-0.4,0.4h-2.9v-7.2h2.9c0.2,0,0.4,0.2,0.4,0.4V24.8z"/>
</g>
</svg>
