<?xml version="1.0" encoding="utf-8"?>
<!-- Generator: Adobe Illustrator 23.0.1, SVG Export Plug-In . SVG Version: 6.00 Build 0)  -->
<svg version="1.1" id="Layer_1" xmlns="http://www.w3.org/2000/svg" xmlns:xlink="http://www.w3.org/1999/xlink" x="0px" y="0px"
	 viewBox="0 0 40 40" style="enable-background:new 0 0 40 40;" xml:space="preserve">
<path d="M23.3,9C23.3,9,23.3,9,23.3,9c-0.5-0.5-1.5-1.2-1.5-1.2c-2.1-1.5-4.7-2.3-7.5-2.3C7,5.5,1,11.5,1,18.8C1,22,2.1,25,4.1,27.4
	c0.1,0.1,0.2,0.2,0.3,0.4l0,0c1.5,5-1.9,6.9-0.5,7.1c2.9,0.4,7.3-3.1,7.3-3.1c0.2,0,0.4,0.1,0.7,0.1c0.1,0,0.3,0,0.4,0.1
	c0.7,0.1,1.4,0.2,2,0.2c5.3,0,9.9-3.2,12.1-7.7c0.2-0.4,0.6-1.5,0.7-2.1c0.3-1.1,0.5-2.3,0.5-3.6C27.6,14.9,26,11.4,23.3,9z
	 M8.9,17.2c0.9,0,1.6,0.7,1.6,1.6c0,0.9-0.7,1.6-1.6,1.6c-0.9,0-1.6-0.7-1.6-1.6C7.3,18,8,17.2,8.9,17.2z M14.3,20.4
	c-0.9,0-1.6-0.7-1.6-1.6c0-0.9,0.7-1.6,1.6-1.6c0.9,0,1.6,0.7,1.6,1.6C15.9,19.7,15.2,20.4,14.3,20.4z M19.7,20.4
	c-0.9,0-1.6-0.7-1.6-1.6c0-0.9,0.7-1.6,1.6-1.6c0.9,0,1.6,0.7,1.6,1.6C21.3,19.7,20.6,20.4,19.7,20.4z"/>
<path d="M39,14.4C39,9.2,34.8,5,29.6,5c0,0,0,0,0,0c0,0,0,0,0,0c-1.9,0-3.7,0.6-5.2,1.6l0,0c-0.3,0.2-0.6,0.4-0.8,0.7
	c3.5,2.4,5.8,6.4,5.8,11c0,1.9-0.4,3.8-1.2,5.4c0.3,0.1,0.7,0.1,1,0.1l0,0c0.1,0,0.1,0,0.2,0c0.1,0,0.2,0,0.3,0c0.1,0,0.3,0,0.4,0
	c0.2,0,0.3,0,0.5,0c0.3,0,0.7-0.1,1-0.2c0,0,0,0,0.1,0c0,0,0,0,0,0c0,0,0,0,0.1,0c1.1,0.8,3.8,2.5,5.6,2.2c1.1-0.1-1.3-1.6-0.6-5.2
	c0,0,0,0,0,0c0.2-0.2,0.3-0.4,0.5-0.6c0,0,0,0,0-0.1c0.1-0.2,0.2-0.3,0.3-0.5c0.1-0.1,0.1-0.2,0.2-0.3c0.1-0.1,0.1-0.2,0.2-0.3
	c0.1-0.2,0.2-0.4,0.3-0.5c0-0.1,0.1-0.1,0.1-0.2c0.1-0.2,0.2-0.4,0.2-0.7c0-0.1,0-0.1,0.1-0.2c0.1-0.2,0.1-0.5,0.2-0.7
	c0-0.1,0-0.1,0-0.2c0-0.2,0.1-0.5,0.1-0.8c0-0.1,0-0.1,0-0.2C39,15,39,14.7,39,14.4C39,14.4,39,14.4,39,14.4
	C39,14.4,39,14.4,39,14.4z"/>
</svg>
