<?xml version="1.0" encoding="utf-8"?>
<!-- Generator: Adobe Illustrator 23.0.1, SVG Export Plug-In . SVG Version: 6.00 Build 0)  -->
<svg version="1.1" id="Layer_1" xmlns="http://www.w3.org/2000/svg" xmlns:xlink="http://www.w3.org/1999/xlink" x="0px" y="0px"
	 viewBox="0 0 40 24" style="enable-background:new 0 0 40 24;" xml:space="preserve">
<style type="text/css">
	.st0{fill:#FFFFFF;}
</style>
<g>
	<g>
		<g>
			<path class="st0" d="M17.4,21.3c-4.9-2.9-8.2-9.4-8.2-16.6c0-1.1,0.1-2.1,0.2-3.1l28.4,0.3C38,2.8,38,3.7,38,4.7
				c0,7.3-3.5,13.8-8.4,16.6H38l-1.1,1.2H10.3l-1-1.3L17.4,21.3z"/>
			<path class="st0" d="M36.9,23.4H10.3c-0.2,0-0.5-0.1-0.6-0.3l-1-1.3c-0.2-0.2-0.2-0.5-0.1-0.9c0.1-0.3,0.4-0.4,0.8-0.4l0,0h5.5
				c-4-3.6-6.5-9.5-6.5-15.9c0-1.1,0.1-2.2,0.2-3.2C8.7,0.9,9,0.6,9.4,0.6l28.4,0.3c0.4,0,0.8,0.3,0.9,0.8c0.1,1,0.2,1.9,0.2,2.8
				c0,6.4-2.5,12.3-6.6,15.9h5.8c0.3,0,0.6,0.2,0.8,0.5s0.1,0.6-0.1,0.9L37.7,23C37.3,23.4,37.1,23.4,36.9,23.4z M18.1,21.8h10.7
				c0-0.1-0.1-0.1-0.1-0.2c-0.1-0.3,0.1-0.8,0.4-1c4.9-2.8,8-9.1,8-16c0-0.6,0-1.3-0.1-1.9L10.2,2.4c-0.1,0.8-0.1,1.5-0.1,2.3
				c0,6.8,3,13.1,7.8,16c0.3,0.2,0.4,0.5,0.3,1C18.2,21.7,18.2,21.8,18.1,21.8z"/>
		</g>
	</g>
	<g>
		<g>
			<path class="st0" d="M9.5,15.9L9.5,15.9c-1.7,0-2.9-0.2-3.8-0.5C1.8,13.6,1,11,1,7.4C1.1,2,5.8,2,7.5,2c0.2,0,2.4,0.1,2.6,0.1
				c0.9,0.1,1.5,0.8,1.5,1.6c0.1,3.7,0.9,6.9,2.3,9.6c0.2,0.5,0.2,1.1,0,1.5c-0.2,0.5-0.8,0.9-1.3,0.9C11.6,15.8,10.5,15.9,9.5,15.9
				z M7.5,5.2C4.3,5.2,4.3,6,4.3,7.3c0,2.9,0.5,3.9,2.7,5c0.1,0,0.6,0.3,2.4,0.3l0,0c0.1,0,0.2,0,0.4,0C9,10.4,8.6,7.9,8.3,5.4
				C8,5.2,7.6,5.2,7.5,5.2z"/>
		</g>
	</g>
</g>
</svg>
