<?xml version="1.0" encoding="utf-8"?>
<!-- Generator: Adobe Illustrator 22.0.1, SVG Export Plug-In . SVG Version: 6.00 Build 0)  -->
<svg version="1.1" id="Layer_1" xmlns="http://www.w3.org/2000/svg" xmlns:xlink="http://www.w3.org/1999/xlink" x="0px" y="0px"
	 viewBox="0 0 24 16.9" style="enable-background:new 0 0 24 16.9;" xml:space="preserve">
<style type="text/css">
	.st0{fill:#444445;}
</style>
<g>
	<path class="st0" d="M20.4,0.2c0.5,0.1,1.5,0.1,2.4,1c0,0,0.7,0.7,1,2.4C24,5.6,24,7.5,24,7.5v1.8c0,0,0,1.9-0.2,3.9
		c-0.2,1.6-1,2.4-1,2.4c-0.9,1-1.9,1-2.4,1c0,0-3.3,0.3-8.4,0.3c-6.2-0.1-8.2-0.2-8.2-0.2c-0.5-0.1-1.7-0.1-2.7-1c0,0-0.7-0.7-1-2.4
		C0,11.3,0,9.4,0,9.4V7.5c0,0,0-1.9,0.2-3.9c0.2-1.7,1-2.4,1-2.4c0.9-1,1.9-1,2.4-1C3.6,0.2,7,0,12,0S20.4,0.2,20.4,0.2z M16,8.2
		L9.5,4.8v6.7L16,8.2z"/>
</g>
</svg>
