<?xml version="1.0" encoding="utf-8"?>
<!-- Generator: Adobe Illustrator 22.0.1, SVG Export Plug-In . SVG Version: 6.00 Build 0)  -->
<svg version="1.1" id="Layer_1" xmlns="http://www.w3.org/2000/svg" xmlns:xlink="http://www.w3.org/1999/xlink" x="0px" y="0px"
	 viewBox="0 0 17 10.8" style="enable-background:new 0 0 17 10.8;" xml:space="preserve">
<g>
	<path d="M5.7,10.3c-2.7,0-4.9-2.2-4.9-4.9S3,0.5,5.7,0.5C7,0.5,8.1,1,9,1.8L7.7,3.1c-0.4-0.3-1-0.8-2-0.8c-1.7,0-3,1.4-3,3.1
		s1.4,3.1,3,3.1c1.9,0,2.7-1.4,2.8-2.1H5.7V4.7h4.6c0,0.2,0.1,0.5,0.1,0.8C10.4,8.3,8.5,10.3,5.7,10.3z M16.2,6.1h-1.4v1.4h-1.4V6.1
		H12V4.7h1.4V3.3h1.4v1.4h1.4V6.1z"/>
</g>
</svg>
