<?xml version="1.0" encoding="utf-8"?>
<!-- Generator: Adobe Illustrator 22.0.1, SVG Export Plug-In . SVG Version: 6.00 Build 0)  -->
<svg version="1.1" id="Layer_1" xmlns="http://www.w3.org/2000/svg" xmlns:xlink="http://www.w3.org/1999/xlink" x="0px" y="0px"
	 viewBox="0 0 10.3 9.8" style="enable-background:new 0 0 10.3 9.8;" xml:space="preserve">
<style type="text/css">
	.st0{fill:#FFFFFF;}
</style>
<g>
	<path class="st0" d="M1.2,2.3L1.2,2.3C0.5,2.3,0,1.8,0,1.1C0,0.5,0.5,0,1.2,0C2,0,2.5,0.5,2.5,1.1C2.5,1.8,2,2.3,1.2,2.3z M2.3,9.8
		H0.1V3.2h2.2V9.8z M10.3,9.8H8.1V6.3c0-0.9-0.3-1.5-1.1-1.5c-0.6,0-1,0.4-1.1,0.8C5.8,5.7,5.8,5.9,5.8,6.1v3.7H3.6c0-6,0-6.6,0-6.6
		h2.2v1h0C6,3.7,6.6,3,7.8,3c1.5,0,2.5,1,2.5,3V9.8z"/>
</g>
</svg>
