<?xml version="1.0" encoding="utf-8"?>
<!-- Generator: Adobe Illustrator 22.0.1, SVG Export Plug-In . SVG Version: 6.00 Build 0)  -->
<svg version="1.1" id="Layer_1" xmlns="http://www.w3.org/2000/svg" xmlns:xlink="http://www.w3.org/1999/xlink" x="0px" y="0px"
	 viewBox="0 0 9.3 12.1" style="enable-background:new 0 0 9.3 12.1;" xml:space="preserve">
<g>
	<path d="M4.9,0.5c2.1,0,4,1.4,4,3.7c0,2.1-1.1,4.4-3.4,4.4C4.9,8.5,4.2,8.3,4,7.7c-0.5,2-0.5,2.3-1.6,3.9l-0.1,0l-0.1-0.1
		c0-0.4-0.1-0.8-0.1-1.3C2.1,8.9,2.7,7,3,5.6C2.9,5.3,2.8,4.9,2.8,4.5C2.8,3.8,3.3,3,4.1,3c0.6,0,0.9,0.4,0.9,1
		c0,0.9-0.6,1.7-0.6,2.5c0,0.6,0.5,1,1,1c1.5,0,2-2.2,2-3.4c0-1.6-1.1-2.5-2.6-2.5C3,1.6,1.6,2.8,1.6,4.6c0,0.9,0.5,1.3,0.5,1.5
		c0,0.2-0.1,0.8-0.3,0.8c0,0-0.1,0-0.1,0c-1-0.3-1.3-1.6-1.3-2.4C0.4,2,2.6,0.5,4.9,0.5z"/>
</g>
</svg>
