<?xml version="1.0" encoding="utf-8"?>
<!-- Generator: Adobe Illustrator 22.0.1, SVG Export Plug-In . SVG Version: 6.00 Build 0)  -->
<svg version="1.1" id="Layer_1" xmlns="http://www.w3.org/2000/svg" xmlns:xlink="http://www.w3.org/1999/xlink" x="0px" y="0px"
	 viewBox="0 0 14.4 14.4" style="enable-background:new 0 0 14.4 14.4;" xml:space="preserve">
<path d="M12.9,0H1.5C0.7,0,0,0.7,0,1.5v11.3c0,0.8,0.7,1.5,1.5,1.5h11.3c0.8,0,1.5-0.7,1.5-1.5V1.5C14.4,0.7,13.7,0,12.9,0z
	 M11.7,3.9h-1.1c-0.8,0-1,0.4-1,1v1.3h2l-0.3,2H9.7v5.1h-2V8.1H5.9v-2h1.7V4.6c0-1.7,1-2.6,2.6-2.6c0.7,0,1.3,0.1,1.5,0.1V3.9z"/>
</svg>
