<?xml version="1.0" encoding="utf-8"?>
<!-- Generator: Adobe Illustrator 22.0.1, SVG Export Plug-In . SVG Version: 6.00 Build 0)  -->
<svg version="1.1" id="Layer_1" xmlns="http://www.w3.org/2000/svg" xmlns:xlink="http://www.w3.org/1999/xlink" x="0px" y="0px"
	 viewBox="0 0 10.3 10.3" style="enable-background:new 0 0 10.3 10.3;" xml:space="preserve">
<style type="text/css">
	.st0{fill:#FFFFFF;}
</style>
<g>
	<path class="st0" d="M10.3,7.3c0,0.8-0.2,1.6-0.8,2.2s-1.3,0.8-2.2,0.8c-0.7,0-1.4,0-2.1,0s-1.4,0-2.1,0c-0.8,0-1.6-0.2-2.2-0.8
		S0.1,8.1,0,7.3c0-0.7,0-1.4,0-2.1S0,3.7,0,3c0-0.8,0.2-1.6,0.8-2.2C1.5,0.3,2.2,0.1,3,0c0.7,0,1.4,0,2.1,0s1.4,0,2.1,0
		c0.8,0,1.6,0.2,2.2,0.8C10,1.5,10.2,2.2,10.3,3c0,0.7,0,1.4,0,2.1S10.3,6.6,10.3,7.3z M2.1,1.1C1.9,1.2,1.7,1.3,1.5,1.5
		C1.3,1.7,1.2,1.9,1.1,2.1c-0.3,0.7-0.2,2.3-0.2,3s-0.1,2.4,0.2,3c0.1,0.2,0.2,0.4,0.4,0.6s0.4,0.3,0.6,0.4c0.7,0.3,2.3,0.2,3,0.2
		s2.4,0.1,3-0.2c0.2-0.1,0.4-0.2,0.6-0.4s0.3-0.4,0.4-0.6c0.3-0.7,0.2-2.3,0.2-3s0.1-2.4-0.2-3C9.1,1.9,8.9,1.7,8.8,1.5
		C8.6,1.3,8.4,1.2,8.2,1.1c-0.7-0.3-2.3-0.2-3-0.2S2.8,0.9,2.1,1.1z M5.1,7.8c-1.5,0-2.6-1.2-2.6-2.6s1.2-2.6,2.6-2.6
		s2.6,1.2,2.6,2.6S6.6,7.8,5.1,7.8z M5.1,3.4c-0.9,0-1.7,0.8-1.7,1.7s0.8,1.7,1.7,1.7s1.7-0.8,1.7-1.7S6.1,3.4,5.1,3.4z M7.9,3
		C7.6,3,7.3,2.7,7.3,2.4c0-0.3,0.3-0.6,0.6-0.6c0.3,0,0.6,0.3,0.6,0.6C8.5,2.7,8.2,3,7.9,3z"/>
</g>
</svg>
