<?xml version="1.0" encoding="utf-8"?>
<!-- Generator: Adobe Illustrator 23.0.1, SVG Export Plug-In . SVG Version: 6.00 Build 0)  -->
<svg version="1.1" id="Layer_1" xmlns="http://www.w3.org/2000/svg" xmlns:xlink="http://www.w3.org/1999/xlink" x="0px" y="0px"
	 viewBox="0 0 40 40" style="enable-background:new 0 0 40 40;" xml:space="preserve">
<g>
	<path d="M31,16c0,2.7-0.7,5.5-2.3,8c-0.6,0.9-0.5,1.3,0.2,2.1c3.1,3.1,6.2,6.2,9.3,9.3c0.9,0.9,1,2,0.3,2.9
		c-0.6,0.8-1.8,0.9-2.6,0.3c-0.2-0.1-0.3-0.3-0.5-0.4c-3.1-3.1-6.2-6.2-9.3-9.3c-0.8-0.8-1.2-0.8-2.1-0.2c-2.6,1.7-5.5,2.4-8.7,2.3
		c-3.3-0.1-6.2-1.2-8.8-3.3c-3-2.4-4.9-5.6-5.4-9.5C0.4,12.7,2.2,8,6.5,4.4c3.3-2.8,7.3-3.9,11.6-3.3c4.3,0.6,7.7,2.7,10.2,6.2
		C30,9.7,30.9,12.7,31,16z M16,27c6,0.1,11-5,11-11c0-6.1-4.9-11-11-11C9.9,5,5,9.8,5,16C5,22.4,10.2,27,16,27z"/>
	<path d="M20.1,17.7c-0.4,0-0.7,0-1.1,0c-1,0-1.3,0.3-1.3,1.3c0,0.7,0,1.5,0,2.2c0,0.7-0.4,1.3-1,1.6c-0.7,0.3-1.3,0.2-1.9-0.3
		c-0.4-0.4-0.6-0.8-0.6-1.4c0-0.8,0-1.5,0-2.3c0-0.7-0.4-1.1-1.1-1.1c-0.8,0-1.6,0-2.4,0c-1.4,0-2.2-1.4-1.5-2.7
		c0.3-0.6,0.9-0.8,1.5-0.8c0.8,0,1.5,0,2.3,0c0.7,0,1.1-0.4,1.1-1.1c0-0.8,0-1.6,0-2.4c0-1.3,1.2-2.1,2.4-1.6c0.6,0.2,1,0.7,1.1,1.4
		c0,0.8,0,1.5,0,2.3c0,1.1,0.3,1.4,1.3,1.4c0.7,0,1.5,0,2.2,0c0.9,0,1.5,0.6,1.7,1.5c0.1,0.7-0.3,1.5-1,1.8
		c-0.2,0.1-0.5,0.2-0.8,0.2C20.8,17.8,20.5,17.7,20.1,17.7C20.1,17.7,20.1,17.7,20.1,17.7z"/>
</g>
</svg>
