<?xml version="1.0" encoding="utf-8"?>
<!-- Generator: Adobe Illustrator 22.0.1, SVG Export Plug-In . SVG Version: 6.00 Build 0)  -->
<svg version="1.1" id="Layer_1" xmlns="http://www.w3.org/2000/svg" xmlns:xlink="http://www.w3.org/1999/xlink" x="0px" y="0px"
	 viewBox="0 0 115 97.3" style="enable-background:new 0 0 115 97.3;" xml:space="preserve">
<g>
	<path d="M115,48.6c0,2.2-1.7,4.1-3.9,4.4l-72.2,8.4c0.3,1.6,0.9,3.2,0.9,4.8c0,1.6-1,3-1.7,4.4h63.6c2.4,0,4.4,2,4.4,4.4
		s-2,4.4-4.4,4.4H30.9c-2.4,0-4.4-2-4.4-4.4c0-2.1,3.1-7.3,4.2-9.5L18.5,8.8H4.4C2,8.8,0,6.8,0,4.4S2,0,4.4,0h17.7
		c4.6,0,4.8,5.5,5.5,8.8h83c2.4,0,4.4,2,4.4,4.4V48.6z M35.3,97.3c-4.8,0-8.8-4-8.8-8.8s4-8.8,8.8-8.8s8.8,4,8.8,8.8
		S40.2,97.3,35.3,97.3z M97.3,97.3c-4.8,0-8.8-4-8.8-8.8s4-8.8,8.8-8.8s8.8,4,8.8,8.8S102.1,97.3,97.3,97.3z"/>
</g>
</svg>
