<?xml version="1.0" encoding="utf-8"?>
<!-- Generator: Adobe Illustrator 23.0.1, SVG Export Plug-In . SVG Version: 6.00 Build 0)  -->
<svg version="1.1" id="Layer_1" xmlns="http://www.w3.org/2000/svg" xmlns:xlink="http://www.w3.org/1999/xlink" x="0px" y="0px"
	 viewBox="0 0 40 40" style="enable-background:new 0 0 40 40;" xml:space="preserve">
<style type="text/css">
	.st0{fill:none;stroke:#FFFFFF;stroke-miterlimit:10;}
</style>
<g>
	<g>
		<path class="st0" d="M29.6,30.8l7.8,8.1h-6.2c-0.7,0-1.2-0.1-1.6-0.2c-0.4-0.2-0.8-0.5-1.3-1L25.7,35l-16-16.9
			c-0.9-1.3-1.6-2.5-2-3.8c-0.4-1.2-0.6-2.5-0.6-3.7c0-1.3,0.2-2.5,0.7-3.7c0.5-1.2,1.2-2.2,2-3c0.9-0.9,2-1.5,3.3-2
			c1.3-0.5,2.8-0.8,4.4-0.8c1.5,0,2.9,0.2,4.1,0.7c1.2,0.5,2.2,1.1,3.1,1.9c0.9,0.8,1.5,1.7,2,2.7c0.5,1,0.8,2,0.9,3.1l-4,0.9
			c-0.8,0.2-1.3-0.2-1.6-1c-0.2-0.4-0.4-0.9-0.6-1.3C21,7.7,20.7,7.3,20.4,7c-0.3-0.3-0.7-0.5-1.2-0.7c-0.5-0.2-1-0.3-1.6-0.3
			c-0.7,0-1.4,0.1-1.9,0.4c-0.6,0.2-1,0.6-1.4,1c-0.4,0.4-0.7,0.9-0.9,1.5C13.1,9.4,13,10,13,10.6c0,0.5,0.1,1,0.2,1.5
			c0.1,0.5,0.3,1,0.5,1.4c0.2,0.5,0.6,1,0.9,1.5c0.4,0.5,0.9,1.1,1.4,1.6L29.6,30.8z"/>
	</g>
	<path class="st0" d="M29.7,18.5c-0.4,0-0.7,0.1-0.9,0.4c-0.2,0.2-0.4,0.6-0.4,1c-0.1,0.6-0.1,1.2-0.2,1.7c-0.2,1.4-0.7,2.9-1.3,4.1
		c-1,2.3-2.3,4.5-4.4,6c-1,0.7-2,1.3-3.1,1.7c-1.3,0.5-2.6,0.7-4.1,0.7c-0.8,0-1.6-0.1-2.4-0.4c-0.7-0.3-1.4-0.7-2-1.2
		c-0.6-0.5-1-1.2-1.3-1.9C9.2,29.8,9,28.9,9,28c0-1.3,0.3-2.5,0.9-3.6c0.6-1.1,1.6-2.1,3-3l-3.1-3.2c-1.1,0.5-1.9,1.1-2.9,1.8
		c-0.9,0.7-1.7,1.5-2.4,2.4c-0.7,0.9-1.2,1.9-1.6,2.9c-0.4,1-0.6,2.1-0.6,3.3c0,1.6,0.3,3.1,1,4.4c0.7,1.3,1.5,2.4,2.6,3.4
		s2.3,1.6,3.7,2.1c1.4,0.5,2.8,0.7,4.2,0.7c2.4,0,4.5-0.4,6.6-1.1c2-0.8,3.9-1.8,5.5-3.1c2.5-1.9,3.9-4.2,3.9-4.2
		c1.2-1.7,2.1-3.6,2.7-5.7c0.6-2.1,1-4.2,1-6.5H29.7z"/>
</g>
</svg>
