<?xml version="1.0" encoding="utf-8"?>
<!-- Generator: Adobe Illustrator 23.0.1, SVG Export Plug-In . SVG Version: 6.00 Build 0)  -->
<svg version="1.1" id="Layer_1" xmlns="http://www.w3.org/2000/svg" xmlns:xlink="http://www.w3.org/1999/xlink" x="0px" y="0px"
	 viewBox="0 0 40 40" style="enable-background:new 0 0 40 40;" xml:space="preserve">
<path d="M31.7,6.8l-1.2-5.3c0-0.2-0.2-0.4-0.4-0.5l0,0c-0.2-0.1-0.4-0.1-0.7,0l-5.1,2c-2.8,1.1-5.2,3.2-6.7,5.9l0,0.1
	c-2,3.7-4.3,10.5-5,15.8c-0.1,0.6,0.2,1.3,0.8,1.6l5.1,2.7c0.6,0.3,1.3,0.2,1.8-0.2c3.9-3.6,8.3-9.3,10.2-13l0-0.1
	C32,12.9,32.4,9.8,31.7,6.8z M22.9,14.6c-1.7-0.9-2.3-3-1.4-4.7s3-2.3,4.7-1.4s2.4,3,1.5,4.7S24.6,15.5,22.9,14.6z"/>
<path d="M14.2,13.5c-0.8,2.3-1.6,4.9-2.2,7.3c-1.5-1.1-2.9-2.3-4.2-3.6c-0.7-0.4-0.6-1.5,0.2-1.7L14.2,13.5z"/>
<path d="M29.3,28.5c-1.8-0.4-3.6-0.9-5.3-1.5c1.7-1.8,3.3-3.8,4.8-5.9l1.9,6.2C30.9,28.2,30,28.9,29.3,28.5z"/>
<path d="M16.5,35.5c-0.1,0.1-0.1,0.2-0.2,0.3c-1,1.2-2.4,2-3.5,3.2c-0.1-0.6,0-1.2,0.3-1.7c0.1-0.2,0.3-0.5,0.2-0.7
	c-0.4-1.3-3.3,1.6-3.4,2.4c0,0,0,0,0,0c-0.7-1-0.4-2.4,0.3-3.3c0.4-0.5,0.6-1,0.8-1.5c0,0,0,0,0,0c0,0,0-0.1,0.1-0.2c0,0,0,0,0-0.1
	c0,0,0,0,0,0c0-0.1,0.1-0.2,0.1-0.3l0,0c0-0.1,0-0.2,0-0.2l0,0c0,0,0,0,0,0c0-0.1,0-0.1,0-0.2l0,0c-0.3-0.4-0.6,0.7-0.7,0.9
	c-0.1,0.3-0.2,0.6-0.4,0.9C10,34.8,9.9,35,9.8,35.1c-0.3,0.5-1.1,0.9-1,0.8C9.1,35.2,9,34.2,9,33.4c0-1,0.2-2.1,0.7-2.8
	c0.5-0.9,1.7-1.7,2.7-1.9c0.3,0,0.6,0,1,0c0,0,0,0,0,0l0,0c-0.4,0.1-0.7,0.7-0.9,1c-0.3,0.7-0.5,1.4-0.4,2.1
	c0.1,0.5,0.3,0.9,0.5,1.4c0,0.1,0.1,0.3,0.1,0.4c0,0,0,0,0,0c0.1,0.4,0.1,0.8,0,1.4c-0.1,0.2,0.7-0.5,1-1.1c0.2-0.6,0.3-1.1,0.3-1.7
	c0-0.2,0.1-1.5,0.5-1.1c0.1,0.1,0.1,0.2,0.1,0.3c0.1,0.2,0.1,0.5,0,0.8c0,0.3,0.2,0.5,0.4,0.3c0,0,0.1,0,0.1,0
	c0.3-0.1,0.5-0.3,0.7-0.5c0.3-0.3,0.4-0.6,0.5-0.9c0.1-0.2,0.1-0.3,0.1-0.5c0.1,0.1,0.1,0.2,0.2,0.3c0,0.1,0.1,0.1,0.1,0.2
	C18,32.6,17.5,34.2,16.5,35.5z"/>
</svg>
